<svg xmlns="http://www.w3.org/2000/svg" viewBox="0 0 648.38 144.7"><defs><style>.cls-1{fill:#fff;}.cls-2{fill:none;stroke:#000;stroke-miterlimit:10;}</style></defs><title>progress-bar</title><g id="Layer_1" data-name="Layer 1"><rect x="0.88" y="0.86" width="647" height="143"/><path d="M703.42,178.92v142h-646v-142h646m1-1h-648v144h648v-144Z" transform="translate(-56.04 -177.56)"/></g><g id="rect"><rect class="cls-1" x="0.88" y="0.86" width="287" height="143"/><path d="M343.42,178.92v142h-286v-142h286m1-1h-288v144h288v-144Z" transform="translate(-56.04 -177.56)"/></g><g id="Layer_2" data-name="Layer 2"><line class="cls-2" x1="288.38" y1="0.36" x2="288.38" y2="144.36"/><line class="cls-2" x1="0.38" y1="34.07" x2="34.88" y2="0.36"/><line class="cls-2" x1="0.38" y1="76.7" x2="68.99" y2="0.36"/><line class="cls-2" x1="0.38" y1="114" x2="99.89" y2="0.36"/><line class="cls-2" x1="0.38" y1="144.36" x2="132.93" y2="0.36"/><line class="cls-2" x1="39.15" y1="144.36" x2="164.91" y2="0.36"/><line class="cls-2" x1="83.51" y1="143.69" x2="200.5" y2="1.03"/><line class="cls-2" x1="116.36" y1="144.36" x2="231.75" y2="0.36"/><line class="cls-2" x1="156.74" y1="143.2" x2="264.56" y2="1.52"/><line class="cls-2" x1="288.38" y1="2.68" x2="184.76" y2="144.36"/><line class="cls-2" x1="210.65" y1="144.36" x2="288.38" y2="34.53"/><line class="cls-2" x1="240.1" y1="144.36" x2="288.38" y2="78.39"/><line class="cls-2" x1="268.82" y1="144.36" x2="288.38" y2="118.07"/></g></svg>